<svg xmlns="http://www.w3.org/2000/svg" width="612" height="612" viewBox="0 0 612 612"><path d="M604.267 194.727c4.257 0 7.733-3.644 7.733-7.733v-40.169c0-4.256-3.283-7.733-7.733-7.733H7.733c-4.256 0-7.733 3.644-7.733 7.733v40.169c0 4.256 3.283 7.733 7.733 7.733h596.534zM0 326.084c0 4.256 3.283 7.733 7.733 7.733h596.533c4.256 0 7.733-3.645 7.733-7.733v-40.169c0-4.284-3.283-7.733-7.733-7.733H7.733c-4.256 0-7.733 3.645-7.733 7.733v40.169zm0 139.091c0 4.256 3.283 7.733 7.733 7.733h596.533c4.256 0 7.733-3.645 7.733-7.733v-40.169c0-4.256-3.283-7.732-7.733-7.732H7.733c-4.256 0-7.733 3.644-7.733 7.732v40.169z" fill="#ff503f" stroke="#ff503f"/></svg>