<svg xmlns="http://www.w3.org/2000/svg" viewBox="0 0 28 28"><g fill="#ff503f"><path d="M15.391 19.341L14 11l-1.39 8.341A3 3 0 0 0 14 25a3 3 0 0 0 1.391-5.659z"/><path d="M14 3C6.268 3 0 9.268 0 17c0 2.059.444 4.014 1.242 5.773a15.632 15.632 0 0 1 1.8-.875A11.95 11.95 0 0 1 2 17C2 10.373 7.373 5 14 5s12 5.373 12 12a11.95 11.95 0 0 1-1.042 4.898c.653.27 1.256.562 1.8.875A13.923 13.923 0 0 0 28 17c0-7.732-6.268-14-14-14z"/><path d="M3.828 21.377l-.617-1.901 3.805-1.235.617 1.902-3.805 1.234zm5.235-9.448l-2.35-3.236 1.62-1.176 2.35 3.237-1.62 1.175zM13 6h2v4h-2V6zm-5.985 9.801l-3.804-1.236.619-1.902 3.804 1.236-.619 1.902zm13.968-.001l-.617-1.902 3.806-1.235.617 1.901-3.806 1.236zm-3.667-5.047l2.352-3.235 1.619 1.176-2.351 3.236-1.62-1.177zm6.856 10.624l-3.805-1.235.617-1.901 3.805 1.235-.617 1.901z"/></g></svg>